<svg xmlns="http://www.w3.org/2000/svg" xmlns:xlink="http://www.w3.org/1999/xlink" width="160" zoomAndPan="magnify" viewBox="0 0 120 37.5" height="50" preserveAspectRatio="xMidYMid meet" version="1.0"><defs><g/><clipPath id="f93416337a"><path d="M 2.121094 0.816406 L 32 0.816406 L 32 37.007812 L 2.121094 37.007812 Z M 2.121094 0.816406 " clip-rule="nonzero"/></clipPath><clipPath id="da2b5c38c2"><path d="M 28 0.816406 L 41.347656 0.816406 L 41.347656 37.007812 L 28 37.007812 Z M 28 0.816406 " clip-rule="nonzero"/></clipPath></defs><g clip-path="url(#f93416337a)"><path fill="#e4c590" d="M 29.042969 34.902344 C 26.460938 36.292969 23.507812 37.082031 20.367188 37.082031 C 10.289062 37.082031 2.121094 28.960938 2.121094 18.949219 C 2.121094 8.933594 10.289062 0.816406 20.367188 0.816406 C 23.148438 0.816406 25.789062 1.433594 28.148438 2.542969 C 27.996094 2.734375 27.855469 2.9375 27.71875 3.152344 C 27.089844 4.160156 26.589844 5.375 26.269531 6.675781 C 24.480469 5.824219 22.480469 5.347656 20.367188 5.347656 C 12.808594 5.347656 6.683594 11.4375 6.683594 18.949219 C 6.683594 26.457031 12.808594 32.546875 20.367188 32.546875 C 24.28125 32.546875 27.8125 30.914062 30.304688 28.292969 C 30.03125 29.296875 29.660156 30.375 29.15625 31.578125 C 28.78125 32.375 28.679688 32.953125 28.679688 33.871094 C 28.679688 34.238281 28.8125 34.585938 29.042969 34.902344 Z M 25.851562 9.53125 C 25.707031 12.851562 26.777344 16.105469 29.636719 17.367188 C 30.523438 18.15625 31.074219 19.140625 31.074219 20.417969 C 31.074219 20.691406 31.074219 20.960938 31.070312 21.222656 C 30.019531 26.140625 25.625 29.828125 20.367188 29.828125 C 14.320312 29.828125 9.417969 24.957031 9.417969 18.949219 C 9.417969 12.9375 14.320312 8.066406 20.367188 8.066406 C 22.363281 8.066406 24.238281 8.601562 25.851562 9.53125 Z M 25.851562 9.53125 " fill-opacity="1" fill-rule="evenodd"/></g><g clip-path="url(#da2b5c38c2)"><path fill="#e4c590" d="M 37.480469 17.023438 C 42.074219 14.921875 41.871094 8.203125 39.347656 4.023438 C 36.785156 -0.222656 32.949219 -0.285156 30.347656 4.023438 C 27.835938 8.183594 27.605469 14.914062 32.21875 17.023438 C 33.0625 17.804688 33.707031 19.34375 33.707031 20.605469 C 33.707031 24.402344 33.941406 27.386719 31.949219 31.765625 C 31.59375 32.554688 31.425781 33.148438 31.425781 33.640625 C 31.425781 35.539062 32.960938 37.082031 34.847656 37.082031 C 36.734375 37.082031 38.269531 35.539062 38.269531 33.640625 C 38.269531 33.148438 38.101562 32.554688 37.746094 31.765625 C 35.726562 27.328125 35.988281 24.136719 35.988281 20.605469 C 35.988281 19.34375 36.632812 17.804688 37.480469 17.023438 Z M 37.480469 17.023438 " fill-opacity="1" fill-rule="nonzero"/></g><g fill="#ffffff" fill-opacity="1"><g transform="translate(44.86343, 21.710546)"><g><path d="M 0.609375 -3.390625 L 2.15625 -3.390625 L 2.15625 -11.9375 L 0.609375 -11.9375 L 0.609375 -15.328125 L 7.71875 -15.328125 C 10.507812 -15.328125 12.644531 -14.679688 14.125 -13.390625 C 15.601562 -12.109375 16.34375 -10.203125 16.34375 -7.671875 C 16.34375 -5.210938 15.601562 -3.316406 14.125 -1.984375 C 12.65625 -0.660156 10.515625 0 7.703125 0 L 0.609375 0 Z M 7.703125 -3.390625 C 8.773438 -3.390625 9.554688 -3.796875 10.046875 -4.609375 C 10.546875 -5.421875 10.796875 -6.441406 10.796875 -7.671875 C 10.796875 -8.941406 10.550781 -9.96875 10.0625 -10.75 C 9.570312 -11.539062 8.785156 -11.9375 7.703125 -11.9375 L 7.078125 -11.9375 L 7.078125 -3.390625 Z M 7.703125 -3.390625 "/></g></g></g><g fill="#ffffff" fill-opacity="1"><g transform="translate(62.244731, 21.710546)"><g><path d="M 0.921875 0 L 0.921875 -3.390625 L 2.78125 -3.390625 L 2.78125 -11.9375 L 0.921875 -11.9375 L 0.921875 -15.328125 L 13.875 -15.328125 L 13.875 -9.234375 L 11.40625 -9.234375 L 10.484375 -11.9375 L 7.71875 -11.9375 L 7.71875 -9.4375 L 10.1875 -9.4375 L 10.1875 -6.90625 L 7.71875 -6.90625 L 7.71875 -3.390625 L 10.484375 -3.390625 L 11.40625 -6.53125 L 13.875 -6.53125 L 13.875 0 Z M 0.921875 0 "/></g></g></g><g fill="#ffffff" fill-opacity="1"><g transform="translate(76.212908, 21.710546)"><g><path d="M 0.609375 0 L 0.609375 -3.390625 L 2.46875 -3.390625 L 2.46875 -11.9375 L 0.609375 -11.9375 L 0.609375 -15.328125 L 8.875 -15.328125 L 11.859375 -7.953125 L 14.796875 -15.328125 L 22.515625 -15.328125 L 22.515625 -11.9375 L 20.65625 -11.9375 L 20.65625 -3.390625 L 22.515625 -3.390625 L 22.515625 0 L 14.484375 0 L 14.484375 -3.390625 L 15.734375 -3.390625 L 15.734375 -9.125 L 12.328125 0 L 9.546875 0 L 5.546875 -9.328125 L 5.546875 -3.390625 L 7.078125 -3.390625 L 7.078125 0 Z M 0.609375 0 "/></g></g></g><g fill="#ffffff" fill-opacity="1"><g transform="translate(99.059161, 21.710546)"><g><path d="M 8.328125 0.28125 C 6.722656 0.28125 5.335938 -0.0625 4.171875 -0.75 C 3.003906 -1.4375 2.117188 -2.378906 1.515625 -3.578125 C 0.910156 -4.785156 0.609375 -6.160156 0.609375 -7.703125 C 0.609375 -9.285156 0.910156 -10.675781 1.515625 -11.875 C 2.117188 -13.070312 3 -13.992188 4.15625 -14.640625 C 5.320312 -15.296875 6.710938 -15.625 8.328125 -15.625 C 9.941406 -15.625 11.328125 -15.296875 12.484375 -14.640625 C 13.648438 -13.992188 14.535156 -13.070312 15.140625 -11.875 C 15.742188 -10.675781 16.046875 -9.285156 16.046875 -7.703125 C 16.046875 -6.160156 15.742188 -4.785156 15.140625 -3.578125 C 14.535156 -2.378906 13.648438 -1.4375 12.484375 -0.75 C 11.316406 -0.0625 9.929688 0.28125 8.328125 0.28125 Z M 8.328125 -3.140625 C 9.023438 -3.140625 9.554688 -3.554688 9.921875 -4.390625 C 10.296875 -5.234375 10.484375 -6.363281 10.484375 -7.78125 C 10.484375 -9.144531 10.300781 -10.222656 9.9375 -11.015625 C 9.582031 -11.816406 9.046875 -12.21875 8.328125 -12.21875 C 7.609375 -12.21875 7.066406 -11.816406 6.703125 -11.015625 C 6.347656 -10.222656 6.171875 -9.144531 6.171875 -7.78125 C 6.171875 -6.363281 6.351562 -5.234375 6.71875 -4.390625 C 7.09375 -3.554688 7.628906 -3.140625 8.328125 -3.140625 Z M 8.328125 -3.140625 "/></g></g></g><g fill="#e4c590" fill-opacity="1"><g transform="translate(41.152486, 34.391448)"><g><path d="M 0.296875 0 L 0.296875 -0.109375 L 0.765625 -0.109375 C 0.898438 -0.109375 1.023438 -0.144531 1.140625 -0.21875 C 1.253906 -0.289062 1.3125 -0.472656 1.3125 -0.765625 L 1.3125 -6.96875 C 1.3125 -7.257812 1.253906 -7.441406 1.140625 -7.515625 C 1.023438 -7.597656 0.898438 -7.640625 0.765625 -7.640625 L 0.296875 -7.640625 L 0.296875 -7.75 L 3.796875 -7.75 C 4.816406 -7.75 5.566406 -7.578125 6.046875 -7.234375 C 6.523438 -6.890625 6.765625 -6.390625 6.765625 -5.734375 C 6.765625 -5.347656 6.691406 -5.019531 6.546875 -4.75 C 6.398438 -4.488281 6.203125 -4.269531 5.953125 -4.09375 C 5.710938 -3.925781 5.445312 -3.789062 5.15625 -3.6875 L 6.359375 -1.640625 C 6.628906 -1.171875 6.84375 -0.828125 7 -0.609375 C 7.15625 -0.398438 7.28125 -0.265625 7.375 -0.203125 C 7.476562 -0.140625 7.582031 -0.109375 7.6875 -0.109375 L 7.703125 -0.109375 L 7.703125 0 L 7.359375 0 C 6.921875 0 6.550781 -0.0234375 6.25 -0.078125 C 5.957031 -0.128906 5.707031 -0.226562 5.5 -0.375 C 5.289062 -0.53125 5.101562 -0.757812 4.9375 -1.0625 L 3.53125 -3.625 L 3.03125 -3.625 L 3.03125 -0.765625 C 3.03125 -0.472656 3.082031 -0.289062 3.1875 -0.21875 C 3.300781 -0.144531 3.429688 -0.109375 3.578125 -0.109375 L 4.046875 -0.109375 L 4.046875 0 Z M 3.03125 -3.734375 L 3.625 -3.734375 C 4.09375 -3.734375 4.425781 -3.882812 4.625 -4.1875 C 4.832031 -4.5 4.9375 -5 4.9375 -5.6875 C 4.9375 -6.363281 4.832031 -6.859375 4.625 -7.171875 C 4.414062 -7.484375 4.078125 -7.640625 3.609375 -7.640625 L 3.03125 -7.640625 Z M 3.03125 -3.734375 "/></g></g></g><g fill="#e4c590" fill-opacity="1"><g transform="translate(48.82174, 34.391448)"><g><path d="M 0.296875 0 L 0.296875 -0.109375 L 0.765625 -0.109375 C 0.910156 -0.109375 1.035156 -0.144531 1.140625 -0.21875 C 1.253906 -0.289062 1.3125 -0.472656 1.3125 -0.765625 L 1.3125 -6.921875 C 1.3125 -7.234375 1.257812 -7.429688 1.15625 -7.515625 C 1.050781 -7.597656 0.921875 -7.640625 0.765625 -7.640625 L 0.296875 -7.640625 L 0.296875 -7.75 L 6.296875 -7.75 L 6.359375 -5.75 L 6.25 -5.75 L 6.21875 -6.109375 C 6.164062 -6.660156 6.007812 -7.050781 5.75 -7.28125 C 5.488281 -7.519531 5.066406 -7.640625 4.484375 -7.640625 L 3.03125 -7.640625 L 3.03125 -4.09375 L 5.609375 -4.09375 L 5.609375 -3.984375 L 3.03125 -3.984375 L 3.03125 -0.109375 L 4.859375 -0.109375 C 5.429688 -0.109375 5.847656 -0.222656 6.109375 -0.453125 C 6.378906 -0.679688 6.539062 -1.078125 6.59375 -1.640625 L 6.625 -2 L 6.734375 -2 L 6.65625 0 Z M 0.296875 0 "/></g></g></g><g fill="#e4c590" fill-opacity="1"><g transform="translate(55.905222, 34.391448)"><g><path d="M 2.765625 0.109375 C 2.160156 0.109375 1.679688 0.03125 1.328125 -0.125 C 0.972656 -0.28125 0.71875 -0.476562 0.5625 -0.71875 C 0.40625 -0.957031 0.328125 -1.195312 0.328125 -1.4375 C 0.328125 -1.675781 0.382812 -1.863281 0.5 -2 C 0.613281 -2.144531 0.765625 -2.25 0.953125 -2.3125 C 1.140625 -2.382812 1.335938 -2.421875 1.546875 -2.421875 C 1.546875 -1.753906 1.609375 -1.242188 1.734375 -0.890625 C 1.867188 -0.546875 2.039062 -0.3125 2.25 -0.1875 C 2.46875 -0.0625 2.71875 0 3 0 C 3.4375 0 3.789062 -0.113281 4.0625 -0.34375 C 4.34375 -0.570312 4.484375 -0.921875 4.484375 -1.390625 C 4.484375 -1.722656 4.40625 -2 4.25 -2.21875 C 4.101562 -2.445312 3.882812 -2.644531 3.59375 -2.8125 C 3.3125 -2.976562 2.96875 -3.144531 2.5625 -3.3125 C 2.0625 -3.519531 1.660156 -3.738281 1.359375 -3.96875 C 1.066406 -4.195312 0.859375 -4.445312 0.734375 -4.71875 C 0.609375 -5 0.546875 -5.316406 0.546875 -5.671875 C 0.546875 -6.328125 0.789062 -6.851562 1.28125 -7.25 C 1.78125 -7.644531 2.46875 -7.84375 3.34375 -7.84375 C 4.03125 -7.84375 4.5625 -7.722656 4.9375 -7.484375 C 5.320312 -7.242188 5.515625 -6.953125 5.515625 -6.609375 C 5.515625 -6.347656 5.398438 -6.128906 5.171875 -5.953125 C 4.953125 -5.773438 4.617188 -5.6875 4.171875 -5.6875 C 4.171875 -6.394531 4.082031 -6.910156 3.90625 -7.234375 C 3.726562 -7.554688 3.425781 -7.71875 3 -7.71875 C 2.8125 -7.71875 2.625 -7.679688 2.4375 -7.609375 C 2.25 -7.535156 2.09375 -7.410156 1.96875 -7.234375 C 1.851562 -7.054688 1.796875 -6.800781 1.796875 -6.46875 C 1.796875 -6.1875 1.851562 -5.9375 1.96875 -5.71875 C 2.09375 -5.507812 2.296875 -5.3125 2.578125 -5.125 C 2.859375 -4.945312 3.242188 -4.757812 3.734375 -4.5625 C 4.484375 -4.257812 5.015625 -3.929688 5.328125 -3.578125 C 5.648438 -3.234375 5.8125 -2.796875 5.8125 -2.265625 C 5.8125 -1.796875 5.691406 -1.382812 5.453125 -1.03125 C 5.210938 -0.675781 4.863281 -0.394531 4.40625 -0.1875 C 3.957031 0.0078125 3.410156 0.109375 2.765625 0.109375 Z M 2.765625 0.109375 "/></g></g></g><g fill="#e4c590" fill-opacity="1"><g transform="translate(62.261911, 34.391448)"><g><path d="M 1.671875 0 L 1.671875 -0.109375 L 2.125 -0.109375 C 2.28125 -0.109375 2.410156 -0.144531 2.515625 -0.21875 C 2.617188 -0.300781 2.671875 -0.5 2.671875 -0.8125 L 2.671875 -7.640625 L 1.984375 -7.640625 C 1.398438 -7.640625 0.972656 -7.519531 0.703125 -7.28125 C 0.429688 -7.050781 0.28125 -6.660156 0.25 -6.109375 L 0.21875 -5.640625 L 0.109375 -5.640625 L 0.1875 -7.75 L 6.890625 -7.75 L 6.96875 -5.640625 L 6.859375 -5.640625 L 6.828125 -6.109375 C 6.796875 -6.660156 6.644531 -7.050781 6.375 -7.28125 C 6.101562 -7.519531 5.675781 -7.640625 5.09375 -7.640625 L 4.40625 -7.640625 L 4.40625 -0.8125 C 4.40625 -0.5 4.457031 -0.300781 4.5625 -0.21875 C 4.664062 -0.144531 4.796875 -0.109375 4.953125 -0.109375 L 5.40625 -0.109375 L 5.40625 0 Z M 1.671875 0 "/></g></g></g><g fill="#e4c590" fill-opacity="1"><g transform="translate(69.345393, 34.391448)"><g><path d="M 0.046875 0 L 0.046875 -0.109375 L 0.484375 -0.109375 C 0.691406 -0.109375 0.851562 -0.164062 0.96875 -0.28125 C 1.09375 -0.394531 1.207031 -0.601562 1.3125 -0.90625 L 3.8125 -7.75 L 4.875 -7.75 L 7.3125 -0.890625 C 7.414062 -0.585938 7.523438 -0.378906 7.640625 -0.265625 C 7.765625 -0.160156 7.929688 -0.109375 8.140625 -0.109375 L 8.171875 -0.109375 L 8.171875 0 L 4.59375 0 L 4.59375 -0.109375 L 5.171875 -0.109375 C 5.503906 -0.109375 5.671875 -0.222656 5.671875 -0.453125 C 5.671875 -0.566406 5.628906 -0.753906 5.546875 -1.015625 L 4.9375 -2.828125 L 2.140625 -2.828125 L 1.515625 -1.15625 C 1.460938 -1.007812 1.421875 -0.878906 1.390625 -0.765625 C 1.359375 -0.648438 1.34375 -0.554688 1.34375 -0.484375 C 1.34375 -0.335938 1.382812 -0.238281 1.46875 -0.1875 C 1.5625 -0.132812 1.695312 -0.109375 1.875 -0.109375 L 2.640625 -0.109375 L 2.640625 0 Z M 2.171875 -2.9375 L 4.90625 -2.9375 L 4.234375 -4.96875 C 4.171875 -5.144531 4.101562 -5.351562 4.03125 -5.59375 C 3.957031 -5.832031 3.882812 -6.078125 3.8125 -6.328125 C 3.738281 -6.578125 3.679688 -6.789062 3.640625 -6.96875 C 3.585938 -6.800781 3.519531 -6.597656 3.4375 -6.359375 C 3.351562 -6.117188 3.265625 -5.878906 3.171875 -5.640625 C 3.085938 -5.410156 3.015625 -5.210938 2.953125 -5.046875 Z M 2.171875 -2.9375 "/></g></g></g><g fill="#e4c590" fill-opacity="1"><g transform="translate(77.513628, 34.391448)"><g><path d="M 4.203125 0.109375 C 3.253906 0.109375 2.515625 -0.078125 1.984375 -0.453125 C 1.453125 -0.835938 1.1875 -1.472656 1.1875 -2.359375 L 1.1875 -6.96875 C 1.1875 -7.257812 1.128906 -7.441406 1.015625 -7.515625 C 0.910156 -7.597656 0.785156 -7.640625 0.640625 -7.640625 L 0.171875 -7.640625 L 0.171875 -7.75 L 3.921875 -7.75 L 3.921875 -7.640625 L 3.453125 -7.640625 C 3.304688 -7.640625 3.175781 -7.597656 3.0625 -7.515625 C 2.957031 -7.429688 2.90625 -7.234375 2.90625 -6.921875 L 2.90625 -1.671875 C 2.90625 -1.066406 3.050781 -0.644531 3.34375 -0.40625 C 3.632812 -0.164062 4.023438 -0.046875 4.515625 -0.046875 C 5.203125 -0.046875 5.734375 -0.238281 6.109375 -0.625 C 6.492188 -1.019531 6.6875 -1.554688 6.6875 -2.234375 L 6.6875 -6.96875 C 6.6875 -7.257812 6.628906 -7.441406 6.515625 -7.515625 C 6.410156 -7.597656 6.285156 -7.640625 6.140625 -7.640625 L 5.46875 -7.640625 L 5.46875 -7.75 L 7.921875 -7.75 L 7.921875 -7.640625 L 7.359375 -7.640625 C 7.203125 -7.640625 7.066406 -7.597656 6.953125 -7.515625 C 6.847656 -7.429688 6.796875 -7.234375 6.796875 -6.921875 L 6.796875 -2.234375 C 6.796875 -1.460938 6.570312 -0.878906 6.125 -0.484375 C 5.675781 -0.0859375 5.035156 0.109375 4.203125 0.109375 Z M 4.203125 0.109375 "/></g></g></g><g fill="#e4c590" fill-opacity="1"><g transform="translate(85.616779, 34.391448)"><g><path d="M 0.296875 0 L 0.296875 -0.109375 L 0.765625 -0.109375 C 0.898438 -0.109375 1.023438 -0.144531 1.140625 -0.21875 C 1.253906 -0.289062 1.3125 -0.472656 1.3125 -0.765625 L 1.3125 -6.96875 C 1.3125 -7.257812 1.253906 -7.441406 1.140625 -7.515625 C 1.023438 -7.597656 0.898438 -7.640625 0.765625 -7.640625 L 0.296875 -7.640625 L 0.296875 -7.75 L 3.796875 -7.75 C 4.816406 -7.75 5.566406 -7.578125 6.046875 -7.234375 C 6.523438 -6.890625 6.765625 -6.390625 6.765625 -5.734375 C 6.765625 -5.347656 6.691406 -5.019531 6.546875 -4.75 C 6.398438 -4.488281 6.203125 -4.269531 5.953125 -4.09375 C 5.710938 -3.925781 5.445312 -3.789062 5.15625 -3.6875 L 6.359375 -1.640625 C 6.628906 -1.171875 6.84375 -0.828125 7 -0.609375 C 7.15625 -0.398438 7.28125 -0.265625 7.375 -0.203125 C 7.476562 -0.140625 7.582031 -0.109375 7.6875 -0.109375 L 7.703125 -0.109375 L 7.703125 0 L 7.359375 0 C 6.921875 0 6.550781 -0.0234375 6.25 -0.078125 C 5.957031 -0.128906 5.707031 -0.226562 5.5 -0.375 C 5.289062 -0.53125 5.101562 -0.757812 4.9375 -1.0625 L 3.53125 -3.625 L 3.03125 -3.625 L 3.03125 -0.765625 C 3.03125 -0.472656 3.082031 -0.289062 3.1875 -0.21875 C 3.300781 -0.144531 3.429688 -0.109375 3.578125 -0.109375 L 4.046875 -0.109375 L 4.046875 0 Z M 3.03125 -3.734375 L 3.625 -3.734375 C 4.09375 -3.734375 4.425781 -3.882812 4.625 -4.1875 C 4.832031 -4.5 4.9375 -5 4.9375 -5.6875 C 4.9375 -6.363281 4.832031 -6.859375 4.625 -7.171875 C 4.414062 -7.484375 4.078125 -7.640625 3.609375 -7.640625 L 3.03125 -7.640625 Z M 3.03125 -3.734375 "/></g></g></g><g fill="#e4c590" fill-opacity="1"><g transform="translate(93.286033, 34.391448)"><g><path d="M 0.296875 0 L 0.296875 -0.109375 L 0.765625 -0.109375 C 0.910156 -0.109375 1.035156 -0.144531 1.140625 -0.21875 C 1.253906 -0.289062 1.3125 -0.472656 1.3125 -0.765625 L 1.3125 -6.921875 C 1.3125 -7.234375 1.257812 -7.429688 1.15625 -7.515625 C 1.050781 -7.597656 0.921875 -7.640625 0.765625 -7.640625 L 0.296875 -7.640625 L 0.296875 -7.75 L 6.296875 -7.75 L 6.359375 -5.75 L 6.25 -5.75 L 6.21875 -6.109375 C 6.164062 -6.660156 6.007812 -7.050781 5.75 -7.28125 C 5.488281 -7.519531 5.066406 -7.640625 4.484375 -7.640625 L 3.03125 -7.640625 L 3.03125 -4.09375 L 5.609375 -4.09375 L 5.609375 -3.984375 L 3.03125 -3.984375 L 3.03125 -0.109375 L 4.859375 -0.109375 C 5.429688 -0.109375 5.847656 -0.222656 6.109375 -0.453125 C 6.378906 -0.679688 6.539062 -1.078125 6.59375 -1.640625 L 6.625 -2 L 6.734375 -2 L 6.65625 0 Z M 0.296875 0 "/></g></g></g><g fill="#e4c590" fill-opacity="1"><g transform="translate(100.369515, 34.391448)"><g><path d="M 0.296875 0 L 0.296875 -0.109375 L 0.96875 -0.109375 C 1.125 -0.109375 1.253906 -0.144531 1.359375 -0.21875 C 1.472656 -0.300781 1.53125 -0.5 1.53125 -0.8125 L 1.53125 -6.96875 C 1.53125 -7.257812 1.472656 -7.441406 1.359375 -7.515625 C 1.242188 -7.597656 1.113281 -7.640625 0.96875 -7.640625 L 0.296875 -7.640625 L 0.296875 -7.75 L 3.0625 -7.75 L 6.890625 -1.890625 L 6.890625 -6.96875 C 6.890625 -7.257812 6.832031 -7.441406 6.71875 -7.515625 C 6.613281 -7.597656 6.488281 -7.640625 6.34375 -7.640625 L 5.53125 -7.640625 L 5.53125 -7.75 L 8.359375 -7.75 L 8.359375 -7.640625 L 7.5625 -7.640625 C 7.40625 -7.640625 7.269531 -7.597656 7.15625 -7.515625 C 7.050781 -7.429688 7 -7.234375 7 -6.921875 L 7 0 L 6.359375 0 L 1.640625 -7.171875 L 1.640625 -0.8125 C 1.640625 -0.5 1.691406 -0.300781 1.796875 -0.21875 C 1.910156 -0.144531 2.039062 -0.109375 2.1875 -0.109375 L 3.140625 -0.109375 L 3.140625 0 Z M 0.296875 0 "/></g></g></g><g fill="#e4c590" fill-opacity="1"><g transform="translate(108.917416, 34.391448)"><g><path d="M 1.671875 0 L 1.671875 -0.109375 L 2.125 -0.109375 C 2.28125 -0.109375 2.410156 -0.144531 2.515625 -0.21875 C 2.617188 -0.300781 2.671875 -0.5 2.671875 -0.8125 L 2.671875 -7.640625 L 1.984375 -7.640625 C 1.398438 -7.640625 0.972656 -7.519531 0.703125 -7.28125 C 0.429688 -7.050781 0.28125 -6.660156 0.25 -6.109375 L 0.21875 -5.640625 L 0.109375 -5.640625 L 0.1875 -7.75 L 6.890625 -7.75 L 6.96875 -5.640625 L 6.859375 -5.640625 L 6.828125 -6.109375 C 6.796875 -6.660156 6.644531 -7.050781 6.375 -7.28125 C 6.101562 -7.519531 5.675781 -7.640625 5.09375 -7.640625 L 4.40625 -7.640625 L 4.40625 -0.8125 C 4.40625 -0.5 4.457031 -0.300781 4.5625 -0.21875 C 4.664062 -0.144531 4.796875 -0.109375 4.953125 -0.109375 L 5.40625 -0.109375 L 5.40625 0 Z M 1.671875 0 "/></g></g></g></svg>